<svg width="68" height="40" viewBox="0 0 68 40" fill="none" xmlns="http://www.w3.org/2000/svg">
<path d="M35.2578 14.3097L35.2578 14.7405L35.6318 14.5268L58.3432 1.5507C62.2644 -0.689053 67.1421 2.14043 67.1421 6.65748L67.1421 33.2212C67.1421 37.7351 62.2643 40.5677 58.3432 38.328L35.6318 25.3519L35.2578 25.1382L35.2578 25.569L35.2578 33.2212C35.2578 37.7319 30.3799 40.5676 26.4589 38.328C26.4589 38.328 26.4589 38.328 26.4589 38.328L3.21446 25.0445L3.09042 25.2616L3.21445 25.0445C-0.738028 22.7859 -0.73802 17.0895 3.21443 14.8309L26.4589 1.5507C30.38 -0.689056 35.2578 2.14042 35.2578 6.65748L35.2578 14.3097Z" fill="white" stroke="black" stroke-width="0.5"/>
</svg>
