<svg xmlns="http://www.w3.org/2000/svg" width="68" height="40" fill="none" viewBox="0 0 68 40"><path fill="#fff" stroke="#000" stroke-width=".5" d="M32.5264 25.5685V25.1378L32.1524 25.3514L9.44096 38.3275C5.51982 40.5673 0.64209 37.7378 0.64209 33.2208V6.65703C0.64209 2.14313 5.51992 -0.689451 9.44096 1.55025L32.1524 14.5263L32.5264 14.74V14.3093V6.65703C32.5264 2.14631 37.4043 -0.689371 41.3252 1.55022C41.3253 1.55023 41.3253 1.55024 41.3253 1.55025L64.5697 14.8337L64.6938 14.6167L64.5697 14.8337C68.5222 17.0923 68.5222 22.7888 64.5697 25.0473L41.3253 38.3275C37.4041 40.5673 32.5264 37.7378 32.5264 33.2208V25.5685Z"/></svg>