<svg xmlns="http://www.w3.org/2000/svg" width="90" height="90" fill="none" viewBox="0 0 90 90"><path fill="#fff" stroke="#000" stroke-width=".5" d="M35.1421 30.6639V30.6635C35.1428 30.2599 35.252 29.864 35.4583 29.5171C35.6646 29.1702 35.9604 28.8852 36.3147 28.692C36.669 28.4987 37.0687 28.4043 37.472 28.4187C37.8754 28.433 38.2674 28.5556 38.6071 28.7735L38.6072 28.7736L60.911 43.1054L35.1421 30.6639ZM35.1421 30.6639V59.34V59.3404C35.1428 59.7439 35.252 60.1399 35.4583 60.4868C35.6646 60.8336 35.9604 61.1186 36.3147 61.3119C36.669 61.5051 37.0687 61.5995 37.472 61.5852C37.8754 61.5709 38.2674 61.4483 38.6071 61.2304L38.6073 61.2303M35.1421 30.6639L38.6073 61.2303M38.6073 61.2303L60.911 46.8944L38.6073 61.2303ZM76.0587 13.7974C76.844 14.8045 77.0978 16.3799 76.8627 18.4701C76.576 21.0192 75.5698 24.2475 74.0435 27.9197C70.9925 35.26 65.8914 44.3088 60.4396 53.1184C54.9894 61.9257 49.1949 70.4841 44.7625 76.8414C42.5464 80.0199 40.6711 82.6477 39.3498 84.4808C38.6892 85.3973 38.1672 86.1152 37.8103 86.6038C37.6319 86.8481 37.4948 87.0351 37.4023 87.161L37.3466 87.2367C27.0298 86.1568 21.2677 80.9142 14.1768 73.8232C7.12411 66.7706 2.2866 55.1005 2.25021 45.1133C4.40657 43.2462 9.65095 39.983 16.4327 36.2106C23.2955 32.3932 31.708 28.0677 40.0268 24.1638C48.3471 20.2593 56.5667 16.7798 63.0456 14.6516C66.2865 13.587 69.081 12.8642 71.23 12.5928C72.3049 12.457 73.2068 12.4357 73.9169 12.5358C74.5167 12.6203 74.9575 12.7881 75.2538 13.026C75.307 13.0757 75.3601 13.1256 75.413 13.1756L75.4239 13.1874L75.4313 13.1928C75.6424 13.3923 75.8516 13.5938 76.0587 13.7974ZM89.6421 44.9999C89.6421 32.6572 84.5883 21.4945 76.4371 13.4683C76.2419 13.222 76.0162 13.0027 75.7581 12.8123C75.7032 12.7541 75.6444 12.6994 75.5816 12.648C67.6753 5.26705 57.0611 0.749939 45.3921 0.749939C20.954 0.749939 1.14209 20.5619 1.14209 44.9999C1.14209 69.438 20.954 89.25 45.3921 89.25C69.8302 89.25 89.6421 69.438 89.6421 44.9999ZM61.6712 43.9203C61.4902 43.5893 61.2288 43.3092 60.9112 43.1056L60.9113 46.8943C61.2288 46.6907 61.4902 46.4106 61.6712 46.0796C61.8522 45.7486 61.9471 45.3773 61.9471 44.9999C61.9471 44.6226 61.8522 44.2513 61.6712 43.9203Z"/></svg>